<svg width="22" height="22" viewBox="0 0 22 22" fill="none" xmlns="http://www.w3.org/2000/svg">
<g clip-path="url(#clip0)">
<path d="M21.2255 12.7357C21.8818 7.21094 20.9102 3.72302 19.1575 2.14543L19.1584 2.14452C16.3296 -0.549565 6.77607 -0.948316 3.39174 2.26552C1.87191 3.8376 1.33657 6.14485 1.27791 9.00119C1.21924 11.8584 1.14957 17.2109 6.13716 18.6629H6.14174L6.13716 20.8803C6.13716 20.8803 6.10324 21.7786 6.67707 21.9592C7.33341 22.1719 7.63041 21.7548 9.67182 19.3164C13.0855 19.6125 15.7072 18.9342 16.0051 18.8352C16.6944 18.6042 20.5948 18.0881 21.2255 12.7357ZM10.0082 17.7563C10.0082 17.7563 7.84766 20.4504 7.17574 21.1498C6.95574 21.3771 6.71466 21.356 6.71832 20.905C6.71832 20.6089 6.73482 17.2237 6.73482 17.2237C2.50624 16.0119 2.75557 11.4542 2.80141 9.06994C2.84724 6.68477 3.28357 4.73135 4.57057 3.41594C7.53966 0.632018 15.9152 1.25443 18.0492 3.2601C20.6581 5.57285 19.7295 12.1069 19.735 12.3296C19.1987 16.7974 16.0381 17.0807 15.4569 17.2741C15.2085 17.3566 12.9031 17.9497 10.0082 17.7563Z" fill="#D9C7C3"/>
<path d="M11.2034 3.93892C10.8505 3.93892 10.8505 4.48892 11.2034 4.49351C13.9415 4.51459 16.1965 6.42309 16.2212 9.92384C16.2212 10.2933 16.7621 10.2887 16.7575 9.91926H16.7566C16.7272 6.14717 14.2651 3.96001 11.2034 3.93892Z" fill="#D9C7C3"/>
<path d="M14.8052 9.34374C14.7969 9.70858 15.3369 9.72599 15.3414 9.35658C15.3864 7.27666 14.1039 5.56341 11.694 5.38283C11.3411 5.35716 11.3044 5.91174 11.6564 5.93741C13.7464 6.09599 14.8474 7.52233 14.8052 9.34374Z" fill="#D9C7C3"/>
<path d="M14.2276 11.7095C13.7748 11.4473 13.3137 11.6104 13.123 11.868L12.7243 12.3841C12.5217 12.6463 12.1431 12.6115 12.1431 12.6115C9.38029 11.8809 8.64145 8.9897 8.64145 8.9897C8.64145 8.9897 8.60754 8.59828 8.86054 8.38837L9.3592 7.97587C9.60854 7.77787 9.7662 7.3012 9.51229 6.83278C8.83395 5.6072 8.37837 5.18462 8.14645 4.86012C7.90262 4.55487 7.53595 4.48612 7.15462 4.69237H7.14637C6.35345 5.1562 5.48537 6.02428 5.76312 6.91803C6.23703 7.86037 7.10787 10.8643 9.88354 13.134C11.188 14.2074 13.2523 15.3074 14.1286 15.5613L14.1369 15.5741C15.0004 15.862 15.84 14.96 16.2883 14.1432V14.1368C16.4872 13.7417 16.4212 13.3677 16.1306 13.123C15.6155 12.6206 14.8381 12.066 14.2276 11.7095Z" fill="#D9C7C3"/>
<path d="M12.0715 7.42884C12.9524 7.48017 13.3796 7.94034 13.4254 8.88543C13.4419 9.25484 13.9782 9.22918 13.9617 8.85976C13.903 7.62592 13.2595 6.93842 12.1008 6.87425C11.7479 6.85317 11.7149 7.40776 12.0715 7.42884Z" fill="#D9C7C3"/>
</g>
<defs>
<clipPath id="clip0">
<rect width="22" height="22" fill="white"/>
</clipPath>
</defs>
</svg>
