<svg width="21" height="21" viewBox="0 0 21 21" fill="none" xmlns="http://www.w3.org/2000/svg">
<g clip-path="url(#clip0)">
<g clip-path="url(#clip1)">
<path d="M15.3185 12.5187L15.3106 12.5843C13.3865 11.6253 13.1853 11.4976 12.9368 11.8703C12.7644 12.1285 12.2621 12.7138 12.1108 12.8871C11.9576 13.0577 11.8054 13.0708 11.5455 12.9527C11.283 12.8215 10.4404 12.5458 9.44288 11.6533C8.66588 10.9577 8.14438 10.1046 7.99038 9.84209C7.734 9.39934 8.27038 9.33635 8.75863 8.41235C8.84613 8.2286 8.8015 8.08422 8.73675 7.95385C8.67113 7.8226 8.14875 6.53634 7.93 6.02359C7.72 5.51259 7.50388 5.57734 7.342 5.57734C6.838 5.53359 6.46963 5.54059 6.145 5.87834C4.73275 7.43059 5.08888 9.03184 6.29725 10.7346C8.672 13.8426 9.93725 14.4148 12.2508 15.2093C12.8755 15.408 13.4451 15.38 13.8958 15.3152C14.398 15.2356 15.4419 14.6843 15.6597 14.0675C15.8829 13.4506 15.8829 12.9387 15.8173 12.8206C15.7525 12.7025 15.581 12.6368 15.3185 12.5187Z" fill="#D9C7C3"/>
<path d="M17.955 3.01786C11.2271 -3.48602 0.09275 1.23111 0.088375 10.4064C0.088375 12.2404 0.56875 14.0289 1.484 15.6082L0 21L5.54313 19.5545C12.46 23.2907 20.9965 18.3295 21 10.4116C21 7.63261 19.915 5.01724 17.9419 3.05199L17.955 3.01786ZM19.2518 10.3827C19.2465 17.0616 11.9149 21.2327 6.11625 17.8237L5.80125 17.6365L2.52 18.4896L3.39937 15.3002L3.19025 14.9721C-0.41825 9.22774 3.7275 1.72024 10.563 1.72024C12.8853 1.72024 15.0649 2.62586 16.7064 4.26649C18.347 5.89311 19.2518 8.07274 19.2518 10.3827Z" fill="#D9C7C3"/>
</g>
</g>
<defs>
<clipPath id="clip0">
<rect width="21" height="21" fill="white"/>
</clipPath>
<clipPath id="clip1">
<rect width="21" height="21" fill="white"/>
</clipPath>
</defs>
</svg>
